HIERARCHY
ROOT root
{
	OFFSET 0.000000 0.000000 0.000000
	CHANNELS 6 Xposition Yposition Zposition Zrotation Yrotation Xrotation
	JOINT lhip
	{
		OFFSET 0.058581 -0.082280 -0.017664
		CHANNELS 3 Zrotation Yrotation Xrotation
		JOINT lknee
		{
			OFFSET 0.043451 -0.386469 0.008037
			CHANNELS 3 Zrotation Yrotation Xrotation
			JOINT lankle
			{
				OFFSET -0.014790 -0.426874 -0.037428
				CHANNELS 3 Zrotation Yrotation Xrotation
				JOINT ltoe
				{
					OFFSET 0.041054 -0.060286 0.122042
					CHANNELS 3 Zrotation Yrotation Xrotation
					End Site
					{
						OFFSET 0.000000 0.000000 0.000000
					}
				}
			}
		}
	}
	JOINT rhip
	{
		OFFSET -0.060310 -0.090513 -0.013543
		CHANNELS 3 Zrotation Yrotation Xrotation
		JOINT rknee
		{
			OFFSET -0.043257 -0.383688 -0.004843
			CHANNELS 3 Zrotation Yrotation Xrotation
			JOINT rankle
			{
				OFFSET 0.019056 -0.420046 -0.034562
				CHANNELS 3 Zrotation Yrotation Xrotation
				JOINT rtoe
				{
					OFFSET -0.034840 -0.062106 0.130323
					CHANNELS 3 Zrotation Yrotation Xrotation
					End Site
					{
						OFFSET 0.000000 0.000000 0.000000
					}
				}
			}
		}
	}
	JOINT lowerback
	{
		OFFSET 0.004439 0.124404 -0.038385
		CHANNELS 3 Zrotation Yrotation Xrotation
		JOINT upperback
		{
			OFFSET 0.004488 0.137956 0.026820
			CHANNELS 3 Zrotation Yrotation Xrotation
			JOINT chest
			{
				OFFSET -0.002265 0.056032 0.002855
				CHANNELS 3 Zrotation Yrotation Xrotation
				JOINT lowerneck
				{
					OFFSET -0.013390 0.211636 -0.033468
					CHANNELS 3 Zrotation Yrotation Xrotation
					JOINT upperneck
					{
						OFFSET 0.010113 0.088937 0.050410
						CHANNELS 3 Zrotation Yrotation Xrotation
						End Site
						{
							OFFSET 0.000000 0.000000 0.000000
						}
					}
				}
				JOINT lclavicle
				{
					OFFSET 0.071702 0.114000 -0.018898
					CHANNELS 3 Zrotation Yrotation Xrotation
					JOINT lshoulder
					{
						OFFSET 0.122921 0.045205 -0.019046
						CHANNELS 3 Zrotation Yrotation Xrotation
						JOINT lelbow
						{
							OFFSET 0.255332 -0.015649 -0.022946
							CHANNELS 3 Zrotation Yrotation Xrotation
							JOINT lwrist
							{
								OFFSET 0.265709 0.012698 -0.007375
								CHANNELS 3 Zrotation Yrotation Xrotation
								End Site
								{
									OFFSET 0.000000 0.000000 0.000000
								}
							}
						}
					}
				}
				JOINT rclavicle
				{
					OFFSET -0.082954 0.112472 -0.023707
					CHANNELS 3 Zrotation Yrotation Xrotation
					JOINT rshoulder
					{
						OFFSET -0.113228 0.046853 -0.008472
						CHANNELS 3 Zrotation Yrotation Xrotation
						JOINT relbow
						{
							OFFSET -0.260127 -0.014369 -0.031269
							CHANNELS 3 Zrotation Yrotation Xrotation
							JOINT rwrist
							{
								OFFSET -0.269108 0.006794 -0.006027
								CHANNELS 3 Zrotation Yrotation Xrotation
								End Site
								{
									OFFSET 0.000000 0.000000 0.000000
								}
							}
						}
					}
				}
			}
		}
	}
}
MOTION
Frames: 13
Frame Time: 0.033333
0.957502 0.466943 0.919050 129.740577 2.118304 78.732294 18.767388 10.032553 -11.182942 -10.102260 11.143343 46.255041 2.875980 11.707610 -35.711577 0.000000 -0.000000 0.000000 -26.545956 -5.959599 -11.299476 -3.675147 -1.686513 33.664238 3.712605 -9.590964 4.936939 0.000000 -0.000000 0.000000 -2.817007 -2.497983 15.655357 3.611387 -6.158322 -1.946501 -1.538875 -3.804476 2.027135 -0.763734 -13.835803 -2.711800 5.043437 -15.289332 8.280017 -23.956063 3.230251 8.648592 -48.752942 -3.280354 13.192289 -49.225223 -61.469347 72.543057 -16.424340 -19.208431 -28.227837 26.625758 -4.908142 1.206268 54.669866 -4.216706 16.353656 -129.085180 87.518411 -110.325221 12.733403 10.883259 -21.920980 
0.980895 0.447564 0.904387 130.124322 0.426234 80.051060 19.344844 6.360634 -12.638475 -11.493305 7.397326 47.546438 1.528632 9.345049 -36.929526 0.000000 -0.000000 0.000000 -28.717380 -6.934289 -14.455750 -5.688497 -4.543162 42.172459 6.734033 -14.426535 5.540469 0.000000 -0.000000 0.000000 -3.827033 -1.648049 14.030840 2.569892 -5.867625 -1.414905 -2.581983 -3.566437 1.900833 0.911226 -14.404652 -2.425898 5.992706 -16.535939 7.202829 -23.645075 3.385754 8.992215 -46.850029 -3.083017 12.844443 -50.869679 -61.756096 73.669167 -15.646418 -19.608108 -27.251039 25.897755 -4.638657 1.711675 56.847703 -4.644497 18.248693 -168.037596 86.244628 -147.466031 8.303857 10.595603 -16.487553 
1.006654 0.424738 0.891194 130.904118 -1.569044 81.236400 20.248519 3.158533 -13.620582 -14.543321 0.245191 47.654514 -0.103633 5.423549 -36.689507 0.000000 -0.000000 0.000000 -30.031278 -7.993888 -17.033831 -6.662381 -4.386655 48.544025 9.457382 -16.016301 1.235461 0.000000 -0.000000 0.000000 -5.609455 -0.789235 12.533245 1.269657 -5.986355 -0.841810 -3.525213 -3.283055 1.777898 2.350321 -13.988438 -1.045175 7.797559 -18.327315 5.333914 -22.698147 3.077367 9.624494 -45.348571 -2.856969 12.400433 -51.333958 -61.265866 72.402725 -11.658756 -18.462253 -29.604653 24.430520 -4.540264 3.326842 60.781058 -5.408428 18.957630 170.754612 86.317380 -168.898821 -3.671594 10.447647 -15.407640 
1.033354 0.402611 0.881051 130.504744 -3.182540 81.317914 22.221379 0.614700 -11.587354 -19.015490 -11.086822 46.020689 -1.704803 0.040896 -36.549536 0.000000 -0.000000 0.000000 -30.928450 -8.915632 -18.003837 -5.723967 -3.286376 52.863954 11.777753 -13.678800 -6.360857 0.000000 -0.000000 0.000000 -6.516045 -0.073400 12.223117 -0.563345 -5.402335 -0.286070 -4.537344 -2.741950 1.245804 3.539228 -13.197266 1.093245 9.506350 -20.288687 3.597273 -21.999265 2.480120 9.664066 -43.746355 -1.821858 12.165686 -52.706354 -60.802931 73.541883 -9.533795 -16.714779 -29.332548 21.867856 -3.773636 5.611244 65.098530 -6.782644 17.975989 127.540870 86.468190 147.446166 -13.842659 9.466215 -16.459939 
1.057656 0.382953 0.872443 127.733149 -4.577537 81.615123 24.198676 -2.703789 -6.466432 -21.810063 -23.246303 41.376382 -2.127263 -3.630451 -38.258912 0.000000 -0.000000 0.000000 -31.964143 -10.338347 -19.019550 -3.948561 -3.506580 55.249284 12.564292 -10.138154 -14.585306 0.000000 -0.000000 0.000000 -6.472356 0.297143 11.133718 -2.755588 -3.933523 1.307719 -5.645053 -1.857770 -0.044724 4.507030 -12.665376 3.494229 11.105305 -21.030368 1.535979 -21.710351 1.761305 9.406128 -42.425122 -0.010528 12.126582 -53.890371 -61.352247 77.106538 -9.972440 -16.888463 -24.869223 18.449731 -1.813319 7.926330 67.833113 -8.243227 16.061604 102.712275 83.874459 124.017745 -14.243842 7.647413 -18.050637 
1.077824 0.365204 0.863971 123.468773 -5.700392 82.499498 24.823593 -4.885557 -1.114825 -20.491702 -29.567860 36.187548 -1.622887 -2.833010 -40.781272 0.000000 -0.000000 0.000000 -32.596588 -11.665411 -21.044193 -1.668279 -3.652134 56.823843 12.423823 -6.435908 -21.430342 0.000000 -0.000000 0.000000 -5.846936 0.222071 9.485268 -4.819282 -1.952815 3.060374 -6.630165 -0.915864 -1.358344 5.079826 -12.673796 5.025985 12.294521 -19.974732 0.281576 -21.078550 0.850398 8.847636 -42.163844 1.349470 12.212492 -53.833978 -63.569219 77.775336 -14.946246 -17.880711 -24.162743 14.740029 0.285660 9.348709 68.844711 -9.548874 13.854380 103.469363 81.559297 125.468014 -1.452831 7.985426 -23.305787 
1.094607 0.350349 0.855371 118.687815 -6.403611 82.831796 24.710988 -3.585629 3.861473 -17.330181 -27.973388 32.155009 -1.385604 0.622272 -42.524721 0.000000 -0.000000 0.000000 -32.967296 -12.619510 -24.313543 0.823007 -3.590165 60.027542 11.631257 -2.825266 -24.176315 0.000000 -0.000000 0.000000 -5.102477 -0.313197 9.329954 -6.001938 -0.054633 4.407475 -7.177862 -0.253715 -2.556591 5.320405 -12.484362 4.801926 12.313263 -17.744668 0.358614 -21.067008 -0.058520 7.942511 -41.799295 1.946720 12.721751 -52.527627 -66.008705 74.871768 -22.151974 -20.033615 -27.072546 13.167610 1.706870 9.573716 67.340048 -10.222966 11.439304 107.920675 82.895281 127.818708 18.737891 14.273868 -31.059200 
1.110493 0.337480 0.846084 114.685565 -6.050614 83.017208 26.265788 0.226186 9.010736 -13.581906 -24.328688 26.671215 -2.426250 3.063098 -43.352136 0.000000 -0.000000 0.000000 -32.759621 -14.153929 -26.435730 3.577014 -4.288231 62.382880 10.422048 0.735344 -26.180464 0.000000 -0.000000 0.000000 -4.914640 -1.134974 9.467362 -5.061173 0.624147 6.055641 -6.453298 -0.678333 -3.670411 5.624013 -10.334921 3.459400 10.386420 -15.883126 0.980194 -23.347642 0.303445 7.423227 -40.566775 2.006301 13.608876 -50.480338 -67.278591 71.794953 -25.189548 -21.798095 -28.656797 17.497062 1.737284 8.497422 60.394169 -8.696585 9.170552 50.654003 88.316265 62.865349 27.633232 23.243950 -40.931187 
1.126536 0.326097 0.837224 112.058788 -4.839856 83.732177 28.470265 3.141165 13.667085 -9.609171 -23.146046 19.848863 -4.435144 5.012361 -43.464198 0.000000 -0.000000 0.000000 -31.968231 -16.200848 -27.548383 6.530793 -5.181419 63.656741 9.805327 3.978880 -28.245222 0.000000 -0.000000 0.000000 -4.989482 -2.418477 9.015574 -2.501835 -0.387838 6.441347 -4.996492 -1.798559 -3.309373 5.956702 -5.239052 1.849717 7.073950 -15.747967 2.073872 -26.946336 2.481611 6.198559 -38.625452 1.734982 15.019906 -50.361462 -66.423044 69.919401 -19.370606 -19.562944 -29.785268 26.833536 0.535842 6.338843 49.245116 -2.847159 8.462252 -41.652726 80.790533 -41.401085 8.768588 16.836038 -48.184305 
1.140166 0.314104 0.831160 109.619556 -3.275182 85.284277 29.121709 2.920750 16.052980 -6.007122 -22.095592 15.616565 -6.167302 8.625657 -43.070489 0.000000 -0.000000 0.000000 -29.986286 -16.493906 -29.825374 8.809338 -6.612482 64.762813 8.827413 4.863011 -29.517250 0.000000 -0.000000 0.000000 -4.669429 -4.104374 8.698284 0.424827 -2.058725 5.383275 -3.609364 -2.607487 -1.998985 5.995318 1.308325 0.009589 3.462557 -15.911942 2.645021 -29.687375 4.654060 4.507391 -37.646714 1.340581 15.883342 -51.844786 -63.335363 67.956267 -8.058661 -14.491083 -29.698417 35.079194 -0.569376 4.427335 41.169303 6.519783 9.380557 -47.524537 72.577098 -50.619410 -28.274851 -1.422602 -27.900086 
1.152463 0.299483 0.829489 106.379464 -1.841531 87.324196 28.848018 1.997597 16.552726 -3.373229 -19.247722 15.083066 -7.390658 11.928853 -41.402252 0.000000 -0.000000 0.000000 -26.616944 -14.705368 -33.293283 9.653310 -7.473434 65.629076 7.171919 4.288071 -30.788369 0.000000 -0.000000 0.000000 -4.068663 -5.295274 8.428944 2.424185 -2.886839 5.207368 -2.637476 -2.647287 -1.566745 6.463404 6.127679 -1.895101 1.294604 -14.728361 2.911988 -29.613897 4.467490 4.300350 -38.928041 1.779832 15.477519 -51.717539 -60.764422 66.342291 -2.259856 -11.732360 -28.598237 37.643331 0.054750 4.656177 41.490875 12.086882 9.782127 -54.162983 67.012138 -52.370949 -52.651870 -0.078219 -6.166475 
1.164955 0.283855 0.835843 103.035780 -0.736458 88.817908 27.921941 2.205152 15.197528 -1.132621 -16.107281 18.992468 -8.570851 14.042460 -37.461240 0.000000 -0.000000 0.000000 -22.939776 -11.723997 -35.568402 9.194359 -7.569663 65.307702 5.509219 3.424836 -31.746802 0.000000 -0.000000 0.000000 -3.531414 -5.530070 9.103957 3.409133 -2.482092 5.921106 -1.879703 -2.293453 -1.890677 6.766971 7.517775 -3.924439 0.796076 -12.488308 3.309583 -28.371492 2.724789 4.988297 -41.015356 2.226442 15.245016 -48.473895 -60.051389 64.338983 -5.513964 -13.629329 -27.478366 36.233646 0.957932 5.594373 43.409644 10.349632 9.637906 -68.296618 70.679523 -63.369704 -39.809137 3.707318 -14.985612 
1.177169 0.268547 0.851328 100.539949 0.284110 89.335991 26.000943 2.042192 9.817362 0.820271 -11.442170 30.421715 -8.711086 16.917487 -30.185074 0.000000 -0.000000 0.000000 -19.385719 -7.964168 -35.409235 8.165261 -7.146369 63.185053 4.010358 1.733394 -31.758250 0.000000 -0.000000 0.000000 -3.215980 -5.196761 11.089183 4.211255 -2.288268 6.938675 -1.142242 -1.976822 -2.235810 6.212124 7.159606 -4.727618 1.010564 -9.080055 2.191321 -27.445375 1.496405 5.341153 -43.409645 2.210917 14.913333 -44.570488 -61.125494 61.668564 -11.298769 -15.372920 -26.162978 33.880517 1.207472 5.568554 44.592822 7.423104 9.505984 -81.903619 75.605665 -73.048815 -15.908135 9.877301 -22.408642 
